<?xml version="1.0" standalone="no"?>
<!DOCTYPE svg PUBLIC "-//W3C//DTD SVG 20010904//EN"
 "http://www.w3.org/TR/2001/REC-SVG-20010904/DTD/svg10.dtd">
<svg version="1.0" xmlns="http://www.w3.org/2000/svg"
 width="1024.000000pt" height="1024.000000pt" viewBox="0 0 1024.000000 1024.000000"
 preserveAspectRatio="xMidYMid meet">

<g transform="translate(0.000000,1024.000000) scale(0.100000,-0.100000)"
fill="#000000" stroke="none">
<path d="M7119 9800 c-484 -77 -877 -408 -1017 -857 -51 -161 -57 -205 -57
-403 0 -196 8 -253 62 -423 13 -44 22 -81 19 -84 -2 -3 -523 -317 -1158 -698
l-1153 -692 -35 58 c-191 316 -508 531 -874 595 -133 24 -367 15 -497 -19
-246 -64 -420 -166 -596 -350 -414 -433 -469 -1059 -138 -1557 85 -127 228
-271 353 -353 256 -169 576 -239 870 -192 376 61 715 301 902 639 l42 77 31
-20 c18 -11 529 -317 1137 -681 608 -364 1106 -663 1107 -664 1 0 -10 -39 -23
-86 -129 -442 -18 -901 298 -1236 181 -190 400 -313 660 -370 111 -24 323 -29
446 -10 395 60 732 304 920 665 99 188 142 366 142 586 0 350 -127 654 -374
900 -109 108 -215 184 -341 244 -182 87 -337 122 -545 122 -270 -1 -476 -62
-700 -209 -100 -66 -266 -228 -330 -324 -28 -41 -50 -66 -58 -63 -11 4 -2277
1360 -2290 1371 -2 1 4 48 14 104 25 154 10 426 -31 531 -4 12 35 40 167 118
95 57 619 371 1165 697 546 327 999 597 1006 600 8 3 22 -6 32 -22 29 -44 175
-192 243 -246 149 -119 340 -208 532 -249 135 -28 362 -31 492 -6 261 51 462
158 649 346 155 154 249 306 314 507 85 258 84 547 -4 805 -75 223 -221 434
-401 581 -134 109 -340 208 -518 249 -99 23 -370 34 -463 19z m383 -184 c542
-104 911 -575 885 -1130 -9 -205 -75 -400 -192 -575 -77 -115 -75 -114 -127
-24 -111 190 -295 329 -525 395 -67 20 -100 23 -243 22 -149 0 -173 -3 -253
-27 -233 -71 -424 -220 -519 -403 l-33 -63 -23 22 c-73 68 -176 267 -219 423
-26 92 -28 113 -28 284 0 171 2 193 28 285 31 112 95 254 157 345 158 233 424
402 709 450 79 13 305 11 383 -4z m-4529 -2510 c378 -97 671 -390 774 -773 24
-88 27 -115 27 -273 0 -191 -9 -241 -73 -405 -33 -88 -110 -217 -163 -279
l-35 -40 -32 61 c-92 171 -265 317 -458 384 -195 67 -433 66 -624 -3 -188 -69
-372 -224 -455 -383 -16 -30 -32 -55 -36 -55 -16 0 -113 150 -160 247 -122
252 -140 538 -52 803 133 398 459 676 869 740 105 16 307 4 418 -24z m4567
-2311 c342 -75 640 -333 774 -668 70 -176 94 -400 63 -582 -35 -197 -130 -405
-239 -521 l-30 -32 -34 66 c-76 144 -205 267 -371 351 -223 112 -527 121 -765
21 -186 -77 -341 -218 -427 -389 l-22 -43 -25 23 c-38 36 -121 171 -158 257
-210 492 -44 1071 389 1357 137 91 259 141 411 170 99 18 327 13 434 -10z"/>
<path d="M7156 9329 c-277 -95 -404 -403 -274 -663 123 -244 439 -333 668
-186 252 162 295 502 93 721 -64 69 -118 103 -204 130 -83 26 -205 25 -283 -2z"/>
<path d="M2598 6845 c-358 -91 -479 -525 -219 -785 182 -183 473 -181 656 4
145 146 177 364 83 550 -25 49 -100 129 -156 168 -94 65 -251 92 -364 63z"/>
<path d="M7183 4525 c-83 -23 -152 -63 -214 -124 -145 -146 -180 -359 -89
-547 29 -59 120 -157 177 -191 70 -41 156 -63 243 -63 87 0 173 22 243 63 57
34 148 132 177 191 91 188 56 401 -89 547 -118 118 -292 166 -448 124z"/>
</g>
</svg>
